<?xml version="1.0" encoding="UTF-8" standalone="no"?>
<!-- Created with Inkscape (http://www.inkscape.org/) -->

<svg
   xmlns:dc="http://purl.org/dc/elements/1.1/"
   xmlns:cc="http://creativecommons.org/ns#"
   xmlns:rdf="http://www.w3.org/1999/02/22-rdf-syntax-ns#"
   xmlns:svg="http://www.w3.org/2000/svg"
   xmlns="http://www.w3.org/2000/svg"
   xmlns:sodipodi="http://sodipodi.sourceforge.net/DTD/sodipodi-0.dtd"
   xmlns:inkscape="http://www.inkscape.org/namespaces/inkscape"
   width="792pt"
   height="612pt"
   id="svg2993"
   version="1.1"
   inkscape:version="0.48.5 r10040"
   sodipodi:docname="描画-1.svg">
  <defs
     id="defs2995" />
  <sodipodi:namedview
     inkscape:document-units="in"
     pagecolor="#ffffff"
     bordercolor="#666666"
     borderopacity="1.0"
     inkscape:pageopacity="0.0"
     inkscape:pageshadow="2"
     inkscape:zoom="0.43415836"
     inkscape:cx="56.97828"
     inkscape:cy="380"
     inkscape:current-layer="layer1"
     id="namedview2997"
     showgrid="false"
     inkscape:window-width="1920"
     inkscape:window-height="998"
     inkscape:window-x="0"
     inkscape:window-y="0"
     inkscape:window-maximized="1" />
  <metadata
     id="metadata2999">
    <rdf:RDF>
      <cc:Work
         rdf:about="">
        <dc:format>image/svg+xml</dc:format>
        <dc:type
           rdf:resource="http://purl.org/dc/dcmitype/StillImage" />
      </cc:Work>
    </rdf:RDF>
  </metadata>
  <g
     inkscape:label="Layer 1"
     inkscape:groupmode="layer"
     id="layer1">
    <rect
       style="fill:none;fill-rule:evenodd;stroke:#de2dfa;stroke-width:1px;stroke-linecap:butt;stroke-linejoin:miter;stroke-opacity:1"
       id="rect3772"
       width="522.85071"
       height="324.7663"
       x="237.24062"
       y="202.99309" />
    <path
       sodipodi:type="arc"
       style="fill:#ff0000;fill-opacity:1"
       id="path3795"
       sodipodi:cx="297.12662"
       sodipodi:cy="281.30551"
       sodipodi:rx="25.336378"
       sodipodi:ry="32.2463"
       d="m 322.463,281.30551 a 25.336378,32.2463 0 1 1 -50.67276,0 25.336378,32.2463 0 1 1 50.67276,0 z"
       transform="matrix(0.45454547,0,0,0.3214286,148.24922,169.00446)" />
    <path
       sodipodi:type="arc"
       style="fill:#00ff00;fill-opacity:1"
       id="path3795-6"
       sodipodi:cx="297.12662"
       sodipodi:cy="281.30551"
       sodipodi:rx="25.336378"
       sodipodi:ry="32.2463"
       d="m 322.463,281.30551 a 25.336378,32.2463 0 1 1 -50.67276,0 25.336378,32.2463 0 1 1 50.67276,0 z"
       transform="matrix(0.45454547,0,0,0.3214286,509.86841,589.358)" />
    <path
       sodipodi:type="arc"
       style="fill:#ff0000;fill-opacity:1"
       id="path3795-1"
       sodipodi:cx="297.12662"
       sodipodi:cy="281.30551"
       sodipodi:rx="25.336378"
       sodipodi:ry="32.2463"
       d="m 322.463,281.30551 a 25.336378,32.2463 0 1 1 -50.67276,0 25.336378,32.2463 0 1 1 50.67276,0 z"
       transform="matrix(0.45454547,0,0,0.3214286,452.28573,335.99423)" />
    <path
       style="fill:none;stroke:#000000;stroke-width:1px;stroke-linecap:butt;stroke-linejoin:miter;stroke-opacity:1"
       d="m 234.93732,202.99309 c -3.83885,0 -7.67769,0 -11.51654,0 -0.76777,-0.76777 -1.27324,-1.95995 -2.30331,-2.30331 -2.91347,-0.97116 -6.29975,0.97116 -9.21322,0 -1.03007,-0.34336 -1.39988,-1.70102 -2.30331,-2.30331 -16.70032,-8.35016 3.64185,2.4279 -6.90992,-4.60661 -1.42845,-0.9523 -3.17817,-1.35101 -4.60662,-2.30331 -1.80686,-1.20457 -3.07107,-3.07107 -4.60661,-4.60661 -2.30331,-2.30331 -4.60661,-4.60662 -6.90992,-6.90992 -9.96247,-9.96248 0.61017,-0.36099 -9.21323,-6.90993 -0.90343,-0.60228 -1.33215,-1.81772 -2.30331,-2.3033 -0.68671,-0.34336 -1.61659,0.34335 -2.3033,0 -4.32134,-2.16067 -0.98493,-2.95478 -2.30331,-6.90992 -0.51989,-1.55969 -6.03019,-5.15045 -6.90992,-6.90992 -1.58854,-3.17709 2.78943,-2.06025 -2.30331,-4.60662 -0.68671,-0.34336 -1.95995,0.68672 -2.30331,0 -0.68671,-1.37343 0,-3.07107 0,-4.60661 0,-0.76777 0.42589,-1.66449 0,-2.30331 -1.20457,-1.80686 -3.80011,-2.59035 -4.60661,-4.60661 -1.0729,-2.68224 0.83963,-10.46131 0,-13.81985 -0.58885,-2.3554 -1.82716,-4.52917 -2.30331,-6.90992 -0.45171,-2.25858 0,-4.60661 0,-6.90992 0,-6.14215 0,-12.2843 0,-18.426454 0,-5.595201 3.3437,-7.950311 6.90992,-11.516535 0.76777,-0.767769 1.33215,-1.817727 2.30331,-2.303307 0.68672,-0.343357 1.53554,0 2.30331,0 1.53554,-0.767769 3.17816,-1.351007 4.60661,-2.303307 0.90343,-0.602288 1.33215,-1.817727 2.30331,-2.303307 0.68671,-0.343357 1.57494,0.24279 2.30331,0 3.25736,-1.085789 5.88218,-3.773852 9.21322,-4.606614 1.4897,-0.372423 3.11693,0.372423 4.60662,0 3.33105,-0.832763 5.84634,-3.933236 9.21323,-4.606614 0.96105,-0.19221 13.04149,0.389172 13.81984,0 0.68671,-0.343357 -0.5429,-1.760413 0,-2.303307 0.54289,-0.542895 1.53554,0 2.30331,0 0.76777,0 1.53553,0 2.3033,0 1.25245,0 7.28546,-0.375532 4.60662,2.303307 -0.76777,0.767769 -1.53554,-1.535538 -2.30331,-2.303307"
       id="path3822"
       inkscape:connector-curvature="0" />
    <path
       style="fill:none;stroke:#000000;stroke-width:1px;stroke-linecap:butt;stroke-linejoin:miter;stroke-opacity:1"
       d="m 228.0274,182.26332 c 6.86713,2.21774 -1.71679,8.08297 0,11.51654 0.48558,0.97116 1.81772,1.33215 2.3033,2.30331 0.68672,1.37342 -1.08579,3.52082 0,4.60661 0.5429,0.54289 1.76041,-0.5429 2.30331,0 1.08579,1.08579 -1.08579,3.52082 0,4.60661 0.54289,0.5429 1.76041,-0.54289 2.30331,0 0.54289,0.5429 0,1.53554 0,2.30331 0,0.76777 0.54289,1.76041 0,2.30331 -0.5429,0.54289 -1.6166,-0.34336 -2.30331,0 -1.65161,0.8258 -2.955,3.7808 -4.60661,4.60661 -0.68672,0.34336 -1.76042,-0.54289 -2.30331,0 -0.5429,0.5429 0.54289,1.76041 0,2.30331 -0.5429,0.54289 -1.6166,-0.34336 -2.30331,0 -0.97116,0.48558 -1.53554,1.53554 -2.30331,2.30331"
       id="path3826"
       inkscape:connector-curvature="0" />
    <path
       style="fill:none;stroke:#000000;stroke-width:1px;stroke-linecap:butt;stroke-linejoin:miter;stroke-opacity:1"
       d="m 626.49951,596.85859 c 6.14215,0 12.2843,0 18.42646,0 1.53553,0 3.14987,-0.48558 4.60661,0 1.03007,0.34335 1.33215,1.81772 2.30331,2.3033 0.68671,0.34336 1.57494,-0.24279 2.3033,0 1.62869,0.5429 2.94109,1.88693 4.60662,2.30331 3.33602,0.83401 10.4872,-0.66653 13.81984,0 1.68345,0.33669 2.94109,1.88693 4.60661,2.30331 1.81183,0.45295 11.42458,0 13.81985,0 8.44546,0 16.89092,0 25.33637,0 4.60662,0 9.21323,0 13.81985,0 0.76777,0 1.53553,0 2.3033,0 0.76777,0 1.6166,0.34336 2.30331,0 5.09274,-2.54637 0.71477,-1.42953 2.30331,-4.60662 1.02075,-2.0415 5.5121,-4.81318 6.90992,-6.90992 5.07456,-1.15993 1.21752,-4.73834 2.30331,-6.90992 0.48558,-0.97116 1.95995,-1.27323 2.3033,-2.3033 0.48558,-1.45674 -0.48558,-3.14988 0,-4.60662 0.68672,-2.06014 3.63546,-2.66429 4.60662,-4.60661 0.34335,-0.68672 -0.24279,-1.57494 0,-2.30331 0.54289,-1.62868 1.76041,-2.97793 2.3033,-4.60661 0.24279,-0.72837 -0.34335,-1.6166 0,-2.30331 0.48558,-0.97116 1.81773,-1.33215 2.30331,-2.30331 0.34336,-0.68671 -0.34336,-1.61659 0,-2.30331 0.48558,-0.97115 1.81773,-1.33214 2.30331,-2.3033 0.68671,-1.37343 -0.68672,-3.23319 0,-4.60662 0.48558,-0.97116 1.81773,-1.33214 2.3033,-2.3033 0.68672,-1.37343 -1.08578,-3.52083 0,-4.60662 0.5429,-0.54289 1.76042,0.5429 2.30331,0 0.5429,-0.54289 0,-1.53554 0,-2.3033 0,-0.76777 0,-1.53554 0,-2.30331 0,-1.03731 -0.35049,-6.20895 0,-6.90992 0.48558,-0.97116 1.81773,-1.33215 2.30331,-2.30331 0.34336,-0.68671 0,-1.53554 0,-2.30331 0,-0.76777 0.54289,-1.76041 0,-2.3033 -0.5429,-0.5429 -1.53554,0 -2.30331,0 -0.76777,0 -1.76041,-0.5429 -2.30331,0 -0.54289,0.54289 0.5429,1.76041 0,2.3033 -0.0741,0.0741 -6.3513,0 -6.90992,0 -3.07107,3.07108 -5.87672,6.43281 -9.21322,9.21323 -1.31887,1.09906 -3.39267,1.08936 -4.60662,2.30331 -3.95743,3.95743 -0.23684,7.02834 -4.60661,9.21323 -0.68672,0.34335 -1.6166,-0.34336 -2.30331,0 -0.97116,0.48558 -1.33215,1.81772 -2.30331,2.3033 -3.07107,1.53554 -2.3033,-2.3033 -2.3033,2.30331"
       id="path3830"
       inkscape:connector-curvature="0" />
    <path
       style="fill:none;stroke:#000000;stroke-width:1px;stroke-linecap:butt;stroke-linejoin:miter;stroke-opacity:1"
       d="m 767.00124,525.45607 c 10.08186,7.56139 6.49875,4.19545 11.51653,9.21323 0.76777,0.76777 1.81773,1.33215 2.30331,2.3033 1.58854,3.17709 -2.78943,2.06025 2.30331,4.60662 0.68671,0.34336 1.76041,-0.5429 2.30331,0 0.54289,0.54289 -0.5429,1.76041 0,2.30331 0.54289,0.54289 1.76041,-0.5429 2.3033,0 3.07108,3.07107 -3.83884,2.3033 2.30331,2.3033"
       id="path3832"
       inkscape:connector-curvature="0" />
    <text
       xml:space="preserve"
       style="font-size:40px;font-style:normal;font-weight:normal;line-height:125%;letter-spacing:0px;word-spacing:0px;fill:#000000;fill-opacity:1;stroke:none;font-family:Sans"
       x="234.93732"
       y="78.61451"
       id="text3834"
       sodipodi:linespacing="125%"><tspan
         sodipodi:role="line"
         id="tspan3836"
         x="234.93732"
         y="78.61451">Upper left</tspan></text>
    <text
       xml:space="preserve"
       style="font-size:40px;font-style:normal;font-weight:normal;line-height:125%;letter-spacing:0px;word-spacing:0px;fill:#000000;fill-opacity:1;stroke:none;font-family:Sans"
       x="472.17795"
       y="592.25195"
       id="text3838"
       sodipodi:linespacing="125%"><tspan
         sodipodi:role="line"
         id="tspan3840"></tspan></text>
    <text
       xml:space="preserve"
       style="font-size:40px;font-style:normal;font-weight:normal;line-height:125%;letter-spacing:0px;word-spacing:0px;fill:#000000;fill-opacity:1;stroke:none;font-family:Sans"
       x="407.68533"
       y="612.98175"
       id="text3842"
       sodipodi:linespacing="125%"><tspan
         sodipodi:role="line"
         id="tspan3844"
         x="407.68533"
         y="612.98175">Lower right</tspan></text>
    <text
       xml:space="preserve"
       style="font-size:40px;font-style:normal;font-weight:normal;line-height:125%;letter-spacing:0px;word-spacing:0px;fill:#000000;fill-opacity:1;stroke:none;font-family:Sans"
       x="50.672756"
       y="693.59747"
       id="text3846"
       sodipodi:linespacing="125%"><tspan
         sodipodi:role="line"
         id="tspan3848"
         x="50.672756"
         y="693.59747">Dates will be printed.</tspan></text>
    <path
       style="fill:none;stroke:#000000;stroke-width:1px;stroke-linecap:butt;stroke-linejoin:miter;stroke-opacity:1"
       d="m 283.30676,283.60883 c 0,6.90992 0,13.81984 0,20.72977 0,1.53553 0,3.07107 0,4.60661 0,0.76777 -0.34335,1.61659 0,2.30331 0.48558,0.97116 1.81773,1.33214 2.30331,2.3033 0.68671,1.37343 -0.48558,3.14988 0,4.60662 0.5429,1.62868 1.76041,2.97793 2.30331,4.60661 0.24279,0.72837 0,1.53554 0,2.30331 0,1.977 -0.44921,12.47223 0,13.81984 0.34335,1.03007 1.81773,1.33215 2.3033,2.30331 0.34336,0.68671 0,1.53554 0,2.3033 0,0.76777 0,1.53554 0,2.30331 0,0.76777 0.76777,2.30331 0,2.30331 -0.76776,0 0,-3.07108 0,-2.30331 0,1.53554 0.68672,3.23319 0,4.60662 -0.34335,0.68671 -1.61659,-0.34336 -2.3033,0 -0.97116,0.48558 -1.81773,1.33214 -2.30331,2.3033 -0.34336,0.68672 0.5429,1.76042 0,2.30331 -0.54289,0.54289 -1.76041,-0.54289 -2.30331,0 -0.54289,0.54289 0.5429,1.76041 0,2.30331 -0.54289,0.54289 -1.76041,-0.5429 -2.3033,0 -0.5429,0.54289 0.54289,1.76041 0,2.3033 -0.5429,0.5429 -1.76042,-0.54289 -2.30331,0 -0.54289,0.5429 0.54289,1.76042 0,2.30331 -0.54289,0.5429 -1.61659,-0.34336 -2.30331,0 -1.94232,0.97116 -2.66429,3.63546 -4.60661,4.60661 -0.68671,0.34336 -1.61659,-0.34335 -2.30331,0 -0.97116,0.48558 -1.39987,1.70102 -2.30331,2.30331 -1.42845,0.9523 -3.17816,1.35101 -4.60661,2.30331 -1.80686,1.20457 -2.66429,3.63545 -4.60661,4.60661 -0.68672,0.34336 -1.76042,-0.54289 -2.30331,0 -0.5429,0.5429 0.54289,1.76042 0,2.30331 -0.5429,0.54289 -1.61659,-0.34336 -2.30331,0 -0.97116,0.48558 -1.39987,1.70102 -2.3033,2.30331 -1.42845,0.9523 -3.39267,1.08935 -4.60662,2.3033 -0.54289,0.5429 0.5429,1.76042 0,2.30331 -0.54289,0.5429 -1.57494,-0.24279 -2.30331,0 -1.62868,0.5429 -3.17816,1.35101 -4.60661,2.30331 -1.39919,0.93279 -3.20742,3.67382 -4.60661,4.60661 -1.42845,0.9523 -3.39267,1.08936 -4.60662,2.30331 -1.21395,1.21395 -1.351,3.17816 -2.3033,4.60661 -0.60229,0.90343 -1.53554,1.53554 -2.30331,2.30331 -0.76777,0.76777 -1.39988,1.70102 -2.30331,2.30331 -1.42845,0.9523 -3.39266,1.08935 -4.60661,2.3033 -1.21395,1.21395 -1.35101,3.17817 -2.30331,4.60662 -0.60229,0.90343 -1.53554,1.53554 -2.30331,2.30331 -0.76777,0.76776 -1.39987,1.70101 -2.3033,2.3033 -1.20939,0.80626 -6.15548,2.34329 -6.90992,4.60662 -0.48558,1.45674 0.48557,3.14987 0,4.60661 -0.57905,1.73715 -9.20691,6.90518 -9.21323,6.90992 -0.86863,0.65148 -1.53554,1.53554 -2.30331,2.30331 -0.76777,0.76777 -1.70102,1.39987 -2.30331,2.30331 -1.9046,2.8569 -2.70201,6.35632 -4.60661,9.21322 -2.2595,3.38926 -6.95373,5.82398 -9.21323,9.21323 -0.9523,1.42845 -1.27324,3.23319 -2.30331,4.60662 -1.30294,1.73726 -3.07107,3.07107 -4.60661,4.60661 -3.07108,3.07108 -5.87672,6.43281 -9.21323,9.21323 -1.31887,1.09906 -3.23319,1.27323 -4.60661,2.30331 -1.73727,1.30294 -3.07108,3.07107 -4.60662,4.60661 -2.3033,2.30331 -5.10305,4.19963 -6.90992,6.90992 -1.34675,2.02013 -1.05416,4.82802 -2.3033,6.90992 -1.11727,1.86211 -3.30367,2.86935 -4.60662,4.60662 -1.03007,1.37342 -1.27324,3.23318 -2.30331,4.60661 -1.30294,1.73726 -3.30366,2.86935 -4.60661,4.60661 -1.03007,1.37343 -1.35101,3.17817 -2.30331,4.60662 -0.60228,0.90343 -1.70102,1.39987 -2.3033,2.3033 -0.9523,1.42845 -1.42003,3.13449 -2.30331,4.60662 -1.42424,2.37374 -3.51616,4.36551 -4.60661,6.90992 -1.24699,2.90964 -1.30226,6.21008 -2.30331,9.21323 -0.5429,1.62868 -1.88693,2.94109 -2.30331,4.60661 -0.37242,1.48969 0.57029,3.1809 0,4.60662 -1.02809,2.57023 -3.57852,4.33968 -4.60661,6.90992 -0.57029,1.42571 0.30114,3.10089 0,4.60661 -0.47615,2.38075 -1.40161,4.65567 -2.30331,6.90992 -0.6376,1.594 -1.96662,2.92317 -2.30331,4.60662 -0.17518,0.8759 0.31728,15.64723 0,16.12315 -0.9523,1.42845 -3.65431,0.87485 -4.60661,2.3033 -0.85176,1.27765 0,3.07108 0,4.60662 0,0.64394 0.18019,11.15616 0,11.51653 -0.34336,0.68671 -1.760413,-0.54289 -2.303308,0 -0.09269,0.0927 0,8.36737 0,9.21323 0,8.53915 0,24.53077 0,39.15622"
       id="path3852"
       inkscape:connector-curvature="0" />
    <path
       style="fill:none;stroke:#000000;stroke-width:1px;stroke-linecap:butt;stroke-linejoin:miter;stroke-opacity:1"
       d="m 262.577,304.3386 c 3.07108,-3.07108 6.50008,-5.8218 9.21323,-9.21323 0.95924,-1.19906 -1.08579,-3.52083 0,-4.60662 0.54289,-0.54289 1.76041,0.5429 2.30331,0 0.54289,-0.54289 -0.34336,-1.61659 0,-2.3033 0.48558,-0.97116 1.81772,-1.33215 2.3033,-2.30331 0.34336,-0.68671 -0.54289,-1.76041 0,-2.30331 0.5429,-0.54289 1.76042,0.5429 2.30331,0 1.08579,-1.08579 -1.08579,-3.52082 0,-4.60661 0.54289,-0.5429 1.76041,0.54289 2.30331,0 0.54289,-0.5429 -0.5429,-1.76041 0,-2.30331 0.54289,-0.54289 1.76041,0.5429 2.3033,0 0.5429,-0.54289 -0.54289,-1.76041 0,-2.30331 0.5429,-0.54289 1.53554,0 2.30331,0 0.76777,0 1.61659,-0.34335 2.30331,0 0.97116,0.48558 1.33215,1.81773 2.3033,2.30331 0.68672,0.34336 1.6166,-0.34336 2.30331,0 0.61155,0.30578 6.60415,6.29837 6.90992,6.90992 0.34336,0.68672 -0.54289,1.76041 0,2.30331 0.5429,0.54289 1.6166,-0.34336 2.30331,0 1.94232,0.97116 2.6643,3.63545 4.60661,4.60661 0.68672,0.34336 1.76042,-0.54289 2.30331,0 0.5429,0.5429 -0.34336,1.6166 0,2.30331 4.79291,9.58581 -0.15901,-2.46232 4.60662,2.30331 1.21394,1.21395 1.08935,3.39266 2.3033,4.60661 0.5429,0.5429 1.53554,0 2.30331,0 0,0.76777 -0.34336,1.61659 0,2.30331 2.75774,5.51548 4.60661,-1.45153 4.60661,4.60661"
       id="path3854"
       inkscape:connector-curvature="0" />
    <path
       style="fill:none;stroke:#000000;stroke-width:1px;stroke-linecap:butt;stroke-linejoin:miter;stroke-opacity:1"
       d="m 181.96125,444.84032 c 0.10507,-0.21013 3.75579,-9.93946 6.90993,-11.51653 0.68671,-0.34336 1.61659,0.34336 2.3033,0 1.94232,-0.97116 2.54648,-3.9199 4.60662,-4.60662 1.45674,-0.48558 3.14987,0.48558 4.60661,0 2.06014,-0.68671 2.54647,-3.9199 4.60662,-4.60661 1.45673,-0.48558 3.14987,0.48558 4.60661,0 1.55968,-0.51989 5.15045,-6.03019 6.90992,-6.90992 0.68671,-0.34336 1.57494,0.24279 2.30331,0 13.04981,-6.52491 -3.43357,0.85839 9.21323,-2.30331 1.66552,-0.41638 2.97793,-1.76041 4.60661,-2.3033 0.72837,-0.24279 1.66448,0.42588 2.30331,0 1.80686,-1.20458 2.66429,-3.63546 4.60661,-4.60662 2.74685,-1.37343 6.23385,0.74485 9.21323,0 1.66552,-0.41638 2.91319,-2.02107 4.60661,-2.30331 5.30126,-0.88354 10.85314,1.05401 16.12315,0 1.68345,-0.33668 2.94109,-1.88692 4.60662,-2.3033 1.48969,-0.37243 3.07107,0 4.60661,0 3.07108,0 6.14215,0 9.21323,0 9.981,0 19.96199,0 29.94299,0 31.21171,0 0.0428,1.71678 16.12315,-2.30331 1.48969,-0.37242 3.07107,0 4.60661,0 1.53554,0 3.07108,0 4.60662,0 6.90992,0 13.81984,0 20.72976,0 1.086,0 11.41214,-0.10439 11.51653,0 1.21395,1.21395 0.87486,3.65431 2.30331,4.60661 6.90992,4.60662 2.30331,-2.3033 6.90992,0 0.97116,0.48558 1.33215,1.81773 2.30331,2.30331 1.84265,0.92132 5.06728,-0.92132 6.90992,0 0.97116,0.48558 1.33215,1.81773 2.30331,2.30331 0.68671,0.34336 1.53554,0 2.30331,0 1.53553,0 3.07107,0 4.60661,0 6.14215,0 12.2843,0 18.42646,0 0.54733,0 8.69698,-0.25812 9.21322,0 0.97116,0.48558 1.33215,1.81773 2.30331,2.30331 1.84265,0.92132 5.06728,-0.92133 6.90992,0 0.97116,0.48558 1.39988,1.70101 2.30331,2.3033 1.53554,0.76777 3.07107,1.53554 4.60661,2.30331 0.76777,0 1.6166,-0.34336 2.30331,0 0.97116,0.48558 1.27324,1.95995 2.30331,2.30331 2.58714,0.86238 11.51008,-0.92391 13.81984,0 2.57024,1.02809 4.33968,3.57852 6.90992,4.60661 0.89691,0.35877 7.47526,0 9.21323,0 6.90992,0 13.81984,0 20.72976,0 17.33433,0 37.12054,0 59.88598,0"
       id="path3856"
       inkscape:connector-curvature="0" />
    <path
       style="fill:none;stroke:#000000;stroke-width:1px;stroke-linecap:butt;stroke-linejoin:miter;stroke-opacity:1"
       d="m 527.45731,389.56096 c 3.38046,-2.86419 10.4095,9.81136 13.81984,11.51653 0.68671,0.34336 1.61659,-0.34336 2.30331,0 0.97116,0.48558 1.33215,1.81773 2.3033,2.30331 0.68672,0.34335 1.76042,-0.5429 2.30331,0 0.5429,0.54289 -0.54289,1.76041 0,2.3033 4.76563,4.76563 -0.18629,-7.2825 4.60662,2.30331 0.34335,0.68671 -0.5429,1.76041 0,2.30331 1.08579,1.08579 3.23318,-0.68672 4.60661,0 1.94232,0.97116 2.66429,3.63545 4.60661,4.60661 0.68672,0.34336 1.76042,-0.54289 2.30331,0 0.5429,0.5429 -0.54289,1.76041 0,2.30331 0.5429,0.54289 1.76041,-0.5429 2.30331,0 0.54289,0.54289 -0.5429,1.76041 0,2.30331 3.07107,3.07107 2.3033,-3.83885 2.3033,2.3033 0,1.08601 0.10439,11.41215 0,11.51654 -0.54289,0.54289 -1.76041,-0.5429 -2.3033,0 -0.5429,0.54289 0.54289,1.76041 0,2.30331 -0.5429,0.54289 -1.76041,-0.5429 -2.30331,0 -4.76562,4.76562 7.28251,-0.1863 -2.30331,4.60661 -0.68671,0.34336 -1.76041,-0.5429 -2.3033,0 -0.5429,0.54289 0.54289,1.76041 0,2.30331 -0.5429,0.54289 -1.76042,-0.5429 -2.30331,0 -0.54289,0.54289 0.54289,1.76041 0,2.3033 -0.54289,0.5429 -1.76041,-0.54289 -2.30331,0 -0.54289,0.5429 0.5429,1.76042 0,2.30331 -1.08579,1.08579 -3.52082,-1.08579 -4.60661,0 -3.07108,3.07108 3.83884,2.30331 -2.30331,2.30331"
       id="path3858"
       inkscape:connector-curvature="0" />
    <text
       xml:space="preserve"
       style="font-size:40px;font-style:normal;font-weight:normal;line-height:125%;letter-spacing:0px;word-spacing:0px;fill:#000000;fill-opacity:1;stroke:none;font-family:Sans"
       x="543.58044"
       y="154.62364"
       id="text3862"
       sodipodi:linespacing="125%"><tspan
         sodipodi:role="line"
         id="tspan3864"
         x="543.58044"
         y="154.62364">Date will not be printed.</tspan></text>
    <path
       style="fill:none;stroke:#000000;stroke-width:1px;stroke-linecap:butt;stroke-linejoin:miter;stroke-opacity:1"
       d="m 663.35242,672.86772 c 0.0893,1.43552 15.66827,-0.9194 18.42646,0 1.62868,0.54289 2.92317,1.96662 4.60661,2.30331 2.25858,0.45171 4.60662,0 6.90992,0 4.60662,0 9.21323,0 13.81985,0 11.51653,0 23.03307,0 34.5496,0 5.37438,0 10.74877,0 16.12315,0 2.30331,0 4.65134,0.45171 6.90992,0 1.68345,-0.33669 2.90709,-2.06052 4.60662,-2.30331 3.80026,-0.5429 7.7691,0.83276 11.51653,0 3.35181,-0.74485 6.14215,-3.07108 9.21323,-4.60661 4.60661,-2.30331 9.21323,-4.60662 13.81984,-6.90993 3.07108,-1.53553 6.35633,-2.70201 9.21323,-4.60661 9.71758,-6.47838 -12.51238,3.95288 9.21323,-6.90992 2.17158,-1.08579 4.73834,-1.21752 6.90992,-2.30331 0.97116,-0.48558 1.39987,-1.70102 2.30331,-2.30331 3.83555,-2.55703 10.26182,-4.24141 13.81984,-6.90992 1.73726,-1.30294 3.07107,-3.07107 4.60661,-4.60661 0.76777,-0.76777 1.70102,-1.39988 2.30331,-2.30331 0.9523,-1.42845 1.08936,-3.39266 2.30331,-4.60661 1.21395,-1.21395 3.17816,-1.35101 4.60661,-2.30331 1.80686,-1.20457 2.79975,-3.40204 4.60661,-4.60661 1.42845,-0.9523 3.39267,-1.08936 4.60662,-2.30331 0.14759,-0.14759 4.32059,-8.78419 4.60661,-9.21323 4.39396,-6.59094 0.43154,3.52778 4.60662,-6.90992 0.9017,-2.25425 1.21751,-4.73834 2.3033,-6.90992 5.63658,-11.27315 2.78616,-2.94711 9.21323,-11.51653 1.03007,-1.37343 1.35101,-3.17817 2.30331,-4.60662 0.60229,-0.90343 1.70102,-1.39987 2.30331,-2.30331 4.58281,-6.87421 0.87867,-2.09005 2.3033,-9.21322 0.76777,-2.30331 1.53554,-4.60662 2.30331,-6.90993 0.76777,-0.76776 1.95995,-1.27323 2.30331,-2.3033 0.48558,-1.45674 -0.30115,-3.1009 0,-4.60662 0.47615,-2.38075 1.82715,-4.52917 2.3033,-6.90992 0.30115,-1.50572 -0.30114,-3.10089 0,-4.60661 0.47615,-2.38075 1.82716,-4.52917 2.30331,-6.90992 0.30114,-1.50572 0,-3.07108 0,-4.60662 0,-6.14215 0,-12.2843 0,-18.42645 0,-3.83885 -0.6311,-7.72992 0,-11.51654 0.39914,-2.39486 1.90416,-4.51505 2.30331,-6.90992 0.37866,-2.27197 0,-4.60661 0,-6.90992 0,-2.30331 0,-4.60661 0,-6.90992 0,-6.14215 0,-12.28431 0,-18.42646 0,-13.05207 0,-26.10414 0,-39.15622 0,-3.05872 0.51281,-14.0719 0,-16.12315 -1.00278,-4.01111 -3.7097,-7.48042 -4.60662,-11.51653 -0.66621,-2.99795 0.43432,-6.17302 0,-9.21323 -0.34335,-2.4035 -1.90416,-4.51506 -2.3033,-6.90992 -0.37867,-2.27197 0.37866,-4.63795 0,-6.90992 -3.36981,-20.21883 -0.84728,3.52082 -4.60662,-11.51654 -0.37242,-1.48969 0.30115,-3.10089 0,-4.60661 0.52856,-4.62537 -3.60383,-7.50542 -4.60661,-11.51654 -0.37242,-1.48969 0.30114,-3.10089 0,-4.60661 -0.47615,-2.38075 -1.90416,-4.51506 -2.30331,-6.90992 -0.37866,-2.27197 0.45172,-4.65134 0,-6.90992 -0.67338,-3.36689 -3.93323,-5.84634 -4.60661,-9.21323 -0.45172,-2.25858 0,-4.60661 0,-6.90992 0,-1.53554 0.48558,-3.14988 0,-4.60661 -0.34336,-1.03007 -1.95995,-1.27324 -2.30331,-2.30331 -0.48558,-1.45674 0.48558,-3.14988 0,-4.60662 -0.34336,-1.03007 -1.70102,-1.39987 -2.30331,-2.3033 -0.76777,-1.53554 -1.53553,-3.07108 -2.3033,-4.60662 0,-0.76777 0.34335,-1.61659 0,-2.3033 -5.27067,-10.54134 0.95465,9.77389 -4.60662,-6.90992 -0.24279,-0.72837 0.24279,-1.57494 0,-2.30331 -0.54289,-1.62869 -1.88692,-2.94109 -2.30331,-4.60662 -0.37242,-1.48969 0.48558,-3.14987 0,-4.60661 -0.68671,-2.06014 -3.63545,-2.6643 -4.60661,-4.60661 -0.68671,-1.37343 0.68671,-3.23319 0,-4.60662 -0.48558,-0.97116 -1.81773,-1.33215 -2.30331,-2.30331 -0.68671,-1.37342 0.68672,-3.23318 0,-4.60661 -0.48558,-0.97116 -1.95995,-1.27324 -2.3033,-2.30331 -0.48558,-1.45674 0,-3.07107 0,-4.60661 0,-1.92876 0.43789,-9.76495 0,-11.51654 -0.41638,-1.66552 -1.88693,-2.94108 -2.30331,-4.60661 -0.99978,-3.99911 0.99978,-9.82074 0,-13.81984 -0.41638,-1.66553 -1.88693,-2.94109 -2.30331,-4.60662 -0.37242,-1.48969 0,-3.07107 0,-4.60661 0,-2.30331 0,-4.60661 0,-6.90992 0,-9.21323 0,-18.42646 0,-27.63969"
       id="path3866"
       inkscape:connector-curvature="0" />
    <path
       style="fill:none;stroke:#000000;stroke-width:1px;stroke-linecap:butt;stroke-linejoin:miter;stroke-opacity:1"
       d="m 695.59872,654.44126 c -10.2666,2.56665 -6.97481,0.0649 -11.51653,4.60662 -0.76777,0.76777 -1.33215,1.81772 -2.30331,2.3033 -0.68671,0.34336 -1.76041,-0.54289 -2.30331,0 -0.54289,0.5429 0.5429,1.76042 0,2.30331 -0.54289,0.5429 -1.76041,-0.54289 -2.30331,0 -0.54289,0.5429 0.5429,1.76041 0,2.30331 -0.54289,0.54289 -1.61659,-0.34336 -2.3033,0 -0.97116,0.48558 -1.33215,1.81773 -2.30331,2.30331 -0.68671,0.34335 -1.61659,-0.34336 -2.30331,0 -0.97116,0.48557 -1.33214,1.81772 -2.3033,2.3033 -1.37343,0.68672 -3.52083,-1.08579 -4.60662,0 -0.0741,0.0741 0,6.35131 0,6.90992 0,5.40167 -0.54289,-1.08579 2.30331,4.60662 0.34336,0.68671 -0.34336,1.61659 0,2.3033 0.97116,1.94232 3.63545,2.6643 4.60661,4.60662 0.34336,0.68671 -0.54289,1.76041 0,2.30331 0.5429,0.54289 1.76042,-0.5429 2.30331,0 0.5429,0.54289 -0.34336,1.61659 0,2.3033 0.97116,1.94232 3.40204,2.79975 4.60661,4.60662 0.95231,1.42845 1.35101,3.17816 2.30331,4.60661 1.20458,1.80686 3.63546,2.6643 4.60662,4.60661 0.34335,0.68672 -0.5429,1.76042 0,2.30331 1.08579,1.08579 3.52082,-1.08579 4.60661,0 0.54289,0.5429 -0.54289,1.76041 0,2.30331 0.54289,0.54289 1.53554,0 2.30331,0 0.76777,0 1.53554,0 2.3033,0"
       id="path3868"
       inkscape:connector-curvature="0" />
  </g>
</svg>
